<svg width="64" height="64" viewBox="0 0 64 64" fill="none" xmlns="http://www.w3.org/2000/svg">
<path d="M31.6875 0C25.4203 0 19.2939 1.85844 14.0829 5.34031C8.8719 8.82217 4.81043 13.7711 2.41208 19.5612C0.0137297 25.3514 -0.613789 31.7227 0.608881 37.8694C1.83155 44.0162 4.84949 49.6624 9.28107 54.0939C13.7126 58.5255 19.3588 61.5435 25.5056 62.7661C31.6524 63.9888 38.0237 63.3613 43.8138 60.9629C49.6039 58.5646 54.5528 54.5031 58.0347 49.2921C61.5166 44.0811 63.375 37.9547 63.375 31.6875C63.3661 23.2862 60.0248 15.2315 54.0842 9.29085C48.1435 3.35022 40.0888 0.00887195 31.6875 0ZM31.6875 58.5C26.3845 58.5 21.2006 56.9275 16.7913 53.9813C12.382 51.0351 8.94537 46.8475 6.91599 41.9482C4.88662 37.0489 4.35564 31.6578 5.39021 26.4566C6.42477 21.2555 8.97842 16.478 12.7282 12.7282C16.478 8.9784 21.2555 6.42476 26.4567 5.39019C31.6578 4.35563 37.0489 4.88661 41.9482 6.91598C46.8476 8.94535 51.0351 12.382 53.9813 16.7913C56.9275 21.2006 58.5 26.3845 58.5 31.6875C58.4919 38.7961 55.6645 45.6113 50.6379 50.6379C45.6113 55.6645 38.7962 58.4919 31.6875 58.5ZM29.25 34.125V17.0625C29.25 16.416 29.5068 15.796 29.9639 15.3389C30.4211 14.8818 31.041 14.625 31.6875 14.625C32.334 14.625 32.954 14.8818 33.4111 15.3389C33.8682 15.796 34.125 16.416 34.125 17.0625V34.125C34.125 34.7715 33.8682 35.3915 33.4111 35.8486C32.954 36.3057 32.334 36.5625 31.6875 36.5625C31.041 36.5625 30.4211 36.3057 29.9639 35.8486C29.5068 35.3915 29.25 34.7715 29.25 34.125ZM35.3438 45.0938C35.3438 45.8169 35.1293 46.5238 34.7276 47.1251C34.3258 47.7263 33.7548 48.1949 33.0867 48.4717C32.4186 48.7484 31.6835 48.8208 30.9742 48.6797C30.265 48.5387 29.6135 48.1904 29.1022 47.6791C28.5908 47.1678 28.2426 46.5163 28.1015 45.807C27.9604 45.0978 28.0328 44.3627 28.3096 43.6946C28.5863 43.0265 29.0549 42.4554 29.6562 42.0537C30.2575 41.6519 30.9644 41.4375 31.6875 41.4375C32.6572 41.4375 33.5872 41.8227 34.2729 42.5084C34.9586 43.1941 35.3438 44.1241 35.3438 45.0938Z" fill="#ED1010"/>
</svg>
